squats_1_grf
version=1
nRows=21
nColumns=19
inDegrees=no
endheader
time	ground_force_right_vx	ground_force_right_vy	ground_force_right_vz	ground_force_right_px	ground_force_right_py	ground_force_right_pz	ground_force_right_mx	ground_force_right_my	ground_force_right_mz	ground_force_left_vx	ground_force_left_vy	ground_force_left_vz	ground_force_left_px	ground_force_left_py	ground_force_left_pz	ground_force_left_mx	ground_force_left_my	ground_force_left_mz
     24.62500000	      2.54662258	    237.84568682	     30.89728972	     -3.45916601	      0.00744345	      2.27654573	     -0.00036853	      0.12643239	      0.00057245	     -4.49403291	    317.65619103	    -38.22429242	     -3.45683969	      0.00801643	      2.68375742	     -0.00264869	      0.79719762	     -0.00138432
     24.62600000	      2.71873198	    237.92272230	     30.89208039	     -3.45925980	      0.00744326	      2.27652756	     -0.00036245	      0.12434700	      0.00056301	     -4.59781571	    316.96554747	    -38.11963545	     -3.45685809	      0.00801633	      2.68373208	     -0.00261514	      0.78709998	     -0.00136678
     24.62700000	      2.88787136	    238.00378746	     30.88501990	     -3.45935270	      0.00744306	      2.27651094	     -0.00035662	      0.12234560	      0.00055395	     -4.70147435	    316.24300605	    -38.00963421	     -3.45687753	      0.00801622	      2.68370681	     -0.00258235	      0.77722858	     -0.00134964
     24.62800000	      3.05244775	    238.08853599	     30.87597708	     -3.45944404	      0.00744286	      2.27649608	     -0.00035105	      0.12043790	      0.00054531	     -4.80426223	    315.48989664	    -37.89449541	     -3.45689804	      0.00801611	      2.68368175	     -0.00255054	      0.76765446	     -0.00133302
     24.62900000	      3.21085282	    238.17657542	     30.86483883	     -3.45953312	      0.00744266	      2.27648318	     -0.00034579	      0.11863124	      0.00053713	     -4.90541795	    314.70769155	    -37.77445776	     -3.45691963	      0.00801599	      2.68365705	     -0.00251994	      0.75844564	     -0.00131702
     24.63000000	      3.36148230	    238.26747166	     30.85151358	     -3.45961926	      0.00744246	      2.27647239	     -0.00034083	      0.11693035	      0.00052943	     -5.00417326	    313.89799155	    -37.64979057	     -3.45694230	      0.00801588	      2.68363285	     -0.00249077	      0.74966613	     -0.00130178
     24.63100000	      3.50275604	    238.36075470	     30.83593470	     -3.45970179	      0.00744226	      2.27646387	     -0.00033619	      0.11533715	      0.00052222	     -5.09976127	    313.06251136	    -37.52079210	     -3.45696605	      0.00801576	      2.68360928	     -0.00246322	      0.74137506	     -0.00128738
     24.63200000	      3.63313831	    238.45592545	     30.81806359	     -3.45978005	      0.00744206	      2.27645773	     -0.00033185	      0.11385061	      0.00051549	     -5.19142479	    312.20306490	    -37.38778778	     -3.45699087	      0.00801563	      2.68358645	     -0.00243748	      0.73362587	     -0.00127393
     24.63300000	      3.75115814	    238.55246366	     30.79789258	     -3.45985341	      0.00744186	      2.27645407	     -0.00032782	      0.11246673	      0.00050922	     -5.27842467	    311.32155042	    -37.25112818	     -3.45701675	      0.00801551	      2.68356447	     -0.00241369	      0.72646557	     -0.00126149
     24.63400000	      3.85542929	    238.64983684	     30.77544749	     -3.45992129	      0.00744167	      2.27645293	     -0.00032407	      0.11117849	      0.00050339	     -5.36004794	    310.41993580	    -37.11118682	     -3.45704366	      0.00801538	      2.68354340	     -0.00239199	      0.71993424	     -0.00125015
     24.63500000	      3.94466947	    238.74750999	     30.75078974	     -3.45998311	      0.00744148	      2.27645437	     -0.00032056	      0.10997595	      0.00049794	     -5.43561567	    309.50024400	    -36.96835773	     -3.45707158	      0.00801526	      2.68352332	     -0.00237248	      0.71406456	     -0.00123996
     24.63600000	      4.01771864	    238.84495611	     30.72401814	     -3.46003837	      0.00744130	      2.27645838	     -0.00031727	      0.10884634	      0.00049283	     -5.50449038	    308.56453898	    -36.82305280	     -3.45710046	      0.00801513	      2.68350428	     -0.00235526	      0.70888151	     -0.00123096
     24.63700000	      4.07355583	    238.94166711	     30.69527014	     -3.46008659	      0.00744113	      2.27646494	     -0.00031414	      0.10777432	      0.00048798	     -5.56608293	    307.61491197	    -36.67569884	     -3.45713026	      0.00801500	      2.68348631	     -0.00234038	      0.70440222	     -0.00122318
     24.63800000	      4.11131437	    239.03716498	     30.66472271	     -3.46012736	      0.00744097	      2.27647400	     -0.00031113	      0.10674212	      0.00048330	     -5.61985866	    306.65346839	    -36.52673428	     -3.45716090	      0.00801487	      2.68346941	     -0.00232787	      0.70063601	     -0.00121664
     24.63900000	      4.13029519	    239.13101301	     30.63259251	     -3.46016033	      0.00744082	      2.27648548	     -0.00030818	      0.10572988	      0.00047872	     -5.66534298	    305.68231528	    -36.37660569	     -3.45719233	      0.00801473	      2.68345358	     -0.00231773	      0.69758449	     -0.00121134
     24.64000000	      4.12997801	    239.22282673	     30.59913569	     -3.46018519	      0.00744069	      2.27649928	     -0.00030523	      0.10471593	      0.00047413	     -5.70212603	    304.70354941	    -36.22576393	     -3.45722446	      0.00801460	      2.68343879	     -0.00230995	      0.69524187	     -0.00120727
     24.64100000	      4.11003020	    239.31228434	     30.56464693	     -3.46020172	      0.00744057	      2.27651529	     -0.00030220	      0.10367717	      0.00046942	     -5.72986679	    303.71924604	    -36.07466014	     -3.45725720	      0.00801447	      2.68342501	     -0.00230447	      0.69359538	     -0.00120441
     24.64200000	      4.07031310	    239.39913640	     30.52945799	     -3.46020973	      0.00744046	      2.27653336	     -0.00029903	      0.10258940	      0.00046450	     -5.74829631	    302.73144832	    -35.92374151	     -3.45729046	      0.00801434	      2.68341218	     -0.00230125	      0.69262580	     -0.00120273
     24.64300000	      4.01088587	    239.48321442	     30.49393556	     -3.46020911	      0.00744037	      2.27655334	     -0.00029564	      0.10142772	      0.00045924	     -5.75722039	    301.74215740	    -35.77344701	     -3.45732413	      0.00801420	      2.68340024	     -0.00230020	      0.69230811	     -0.00120218
     24.64400000	      3.93200657	    239.56443830	     30.45847853	     -3.46019983	      0.00744030	      2.27657507	     -0.00029197	      0.10016698	      0.00045353	     -5.75652162	    300.75332321	    -35.62420305	     -3.45735809	      0.00801407	      2.68338910	     -0.00230121	      0.69261218	     -0.00120271
     24.64500000	      3.83413046	    239.64282225	     30.42351459	     -3.46018191	      0.00744025	      2.27659837	     -0.00028793	      0.09878215	      0.00044726	     -5.74616083	    299.76683587	    -35.47641924	     -3.45739222	      0.00801394	      2.68337867	     -0.00230417	      0.69350359	     -0.00120425
